<?xml version="1.0" encoding="UTF-8" standalone="no"?>
<!-- Created with Inkscape (http://www.inkscape.org/) -->

<svg
   xmlns:dc="http://purl.org/dc/elements/1.1/"
   xmlns:cc="http://creativecommons.org/ns#"
   xmlns:rdf="http://www.w3.org/1999/02/22-rdf-syntax-ns#"
   xmlns:svg="http://www.w3.org/2000/svg"
   xmlns="http://www.w3.org/2000/svg"
   xmlns:sodipodi="http://sodipodi.sourceforge.net/DTD/sodipodi-0.dtd"
   xmlns:inkscape="http://www.inkscape.org/namespaces/inkscape"
   inkscape:export-ydpi="90"
   inkscape:export-xdpi="90"
   inkscape:export-filename="/home/thomas/jfxr/sprites.png"
   sodipodi:docname="sprites.svg"
   inkscape:version="0.48.4 r9939"
   version="1.1"
   id="svg2"
   height="30"
   width="150">
  <sodipodi:namedview
     id="base"
     pagecolor="#ffffff"
     bordercolor="#666666"
     borderopacity="1.0"
     inkscape:pageopacity="0.0"
     inkscape:pageshadow="2"
     inkscape:zoom="17.177981"
     inkscape:cx="69.424922"
     inkscape:cy="4.1219122"
     inkscape:document-units="px"
     inkscape:current-layer="layer1"
     showgrid="true"
     inkscape:window-width="1280"
     inkscape:window-height="776"
     inkscape:window-x="0"
     inkscape:window-y="24"
     inkscape:window-maximized="0"
     inkscape:snap-bbox="true"
     inkscape:snap-global="true">
    <inkscape:grid
       snapvisiblegridlinesonly="true"
       enabled="true"
       visible="true"
       empspacing="15"
       id="grid2985"
       type="xygrid" />
    <inkscape:grid
       originy="7.5px"
       originx="7.5px"
       dotted="true"
       snapvisiblegridlinesonly="true"
       enabled="true"
       visible="true"
       empspacing="15"
       id="grid2991"
       type="xygrid" />
  </sodipodi:namedview>
  <defs
     id="defs4">
    <marker
       style="overflow:visible"
       id="TriangleInS"
       refX="0"
       refY="0"
       orient="auto"
       inkscape:stockid="TriangleInS">
      <path
         transform="scale(-0.2,-0.2)"
         style="fill-rule:evenodd;stroke:#000000;stroke-width:1pt"
         d="m 5.77,0 -8.65,5 0,-10 8.65,5 z"
         id="path4020"
         inkscape:connector-curvature="0" />
    </marker>
    <marker
       style="overflow:visible"
       id="Arrow2Sstart"
       refX="0"
       refY="0"
       orient="auto"
       inkscape:stockid="Arrow2Sstart">
      <path
         transform="matrix(0.3,0,0,0.3,-0.69,0)"
         d="M 8.7185878,4.0337352 -2.2072895,0.01601326 8.7185884,-4.0017078 c -1.7454984,2.3720609 -1.7354408,5.6174519 -6e-7,8.035443 z"
         style="fill-rule:evenodd;stroke-width:0.625;stroke-linejoin:round"
         id="path3911"
         inkscape:connector-curvature="0" />
    </marker>
    <marker
       style="overflow:visible"
       id="Arrow1Sstart"
       refX="0"
       refY="0"
       orient="auto"
       inkscape:stockid="Arrow1Sstart">
      <path
         transform="matrix(0.2,0,0,0.2,1.2,0)"
         style="fill-rule:evenodd;stroke:#000000;stroke-width:1pt"
         d="M 0,0 5,-5 -12.5,0 5,5 0,0 z"
         id="path3893"
         inkscape:connector-curvature="0" />
    </marker>
    <marker
       style="overflow:visible"
       id="Arrow1Lstart"
       refX="0"
       refY="0"
       orient="auto"
       inkscape:stockid="Arrow1Lstart">
      <path
         transform="matrix(0.8,0,0,0.8,10,0)"
         style="fill-rule:evenodd;stroke:#000000;stroke-width:1pt"
         d="M 0,0 5,-5 -12.5,0 5,5 0,0 z"
         id="path3881"
         inkscape:connector-curvature="0" />
    </marker>
    <marker
       style="overflow:visible"
       id="Arrow1Lend"
       refX="0"
       refY="0"
       orient="auto"
       inkscape:stockid="Arrow1Lend">
      <path
         transform="matrix(-0.8,0,0,-0.8,-10,0)"
         style="fill-rule:evenodd;stroke:#000000;stroke-width:1pt"
         d="M 0,0 5,-5 -12.5,0 5,5 0,0 z"
         id="path3884"
         inkscape:connector-curvature="0" />
    </marker>
    <marker
       style="overflow:visible"
       id="TriangleInSP"
       refX="0"
       refY="0"
       orient="auto"
       inkscape:stockid="TriangleInSP">
      <path
         transform="scale(-0.2,-0.2)"
         style="fill:#ffffff;fill-rule:evenodd;stroke:#ffffff;stroke-width:1pt"
         d="m 5.77,0 -8.65,5 0,-10 8.65,5 z"
         id="path5458"
         inkscape:connector-curvature="0" />
    </marker>
  </defs>
  <metadata
     id="metadata7">
    <rdf:RDF>
      <cc:Work
         rdf:about="">
        <dc:format>image/svg+xml</dc:format>
        <dc:type
           rdf:resource="http://purl.org/dc/dcmitype/StillImage" />
        <dc:title></dc:title>
      </cc:Work>
    </rdf:RDF>
  </metadata>
  <g
     style="display:none"
     inkscape:label="background (HIDE BEFORE EXPORT)"
     id="layer2"
     inkscape:groupmode="layer"
     transform="translate(0,15)"
     sodipodi:insensitive="true">
    <rect
       y="-30"
       x="-15"
       height="60.063133"
       width="180"
       id="rect3777"
       style="fill:#000000;stroke:none" />
  </g>
  <g
     transform="translate(0,-1022.3622)"
     id="layer1"
     inkscape:groupmode="layer"
     inkscape:label="Layer 1"
     style="display:inline">
    <path
       inkscape:export-ydpi="90"
       inkscape:export-xdpi="90"
       sodipodi:nodetypes="czszc"
       inkscape:connector-curvature="0"
       id="path2993"
       d="m 1.5,1029.8622 c 0.5,-2 1.5,-6 3,-6 1.5,0 2.5,4 3,6 0.5423261,2.1693 1.5,6 3,6 1.5,0 2.5,-4 3,-6"
       style="fill:none;stroke:#ffffff;stroke-width:1px;stroke-linecap:square;stroke-linejoin:miter;stroke-opacity:1" />
    <path
       sodipodi:nodetypes="cccc"
       inkscape:connector-curvature="0"
       id="path3763"
       d="m 16.5,1029.8622 3,-6 6,12 3,-6"
       style="fill:none;stroke:#ffffff;stroke-width:1px;stroke-linecap:square;stroke-linejoin:miter;stroke-opacity:1" />
    <path
       sodipodi:nodetypes="cccccc"
       inkscape:connector-curvature="0"
       id="path3767"
       d="m 46.5,1029.8622 0,-6 6,0 0,12 6,0 0,-6"
       style="fill:none;stroke:#ffffff;stroke-width:1px;stroke-linecap:square;stroke-linejoin:miter;stroke-opacity:1" />
    <path
       style="fill:none;stroke:#ffffff;stroke-width:1px;stroke-linecap:square;stroke-linejoin:miter;stroke-opacity:1"
       d="m 31.5,1029.8622 6,-6 0,12 6,-6"
       id="path3002"
       inkscape:connector-curvature="0"
       sodipodi:nodetypes="cccc" />
    <path
       sodipodi:nodetypes="ccccccccccccc"
       inkscape:connector-curvature="0"
       id="path3003"
       d="m 106.5,1028.8622 1,-3 1,7 1,-6 1,8 1,-3 1,-1 1,-3 1,4 1,-6 1,4 1,3 1,-7"
       style="fill:none;stroke:#ffffff;stroke-width:1;stroke-linecap:butt;stroke-linejoin:miter;stroke-miterlimit:10;stroke-opacity:1;stroke-dasharray:none" />
    <path
       style="fill:none;stroke:#ff00cc;stroke-width:1;stroke-linecap:butt;stroke-linejoin:miter;stroke-miterlimit:10;stroke-opacity:1;stroke-dasharray:none"
       d="m 121.5,1028.8622 1,-3 1,7 1,-6 1,8 1,-3 1,-1 1,-3 1,4 1,-6 1,4 1,3 1,-7"
       id="path3773"
       inkscape:connector-curvature="0"
       sodipodi:nodetypes="ccccccccccccc" />
    <path
       sodipodi:nodetypes="ccccccccccccc"
       inkscape:connector-curvature="0"
       id="path3775"
       d="m 136.5,1028.8622 1,-3 1,7 1,-6 1,8 1,-3 1,-1 1,-3 1,4 1,-6 1,4 1,3 1,-7"
       style="fill:none;stroke:#803300;stroke-width:1;stroke-linecap:butt;stroke-linejoin:miter;stroke-miterlimit:10;stroke-opacity:1;stroke-dasharray:none" />
    <path
       sodipodi:nodetypes="cc"
       inkscape:connector-curvature="0"
       id="path3005"
       d="m 61.5,1029.8622 c 2,-0.5 5,-2 5,-6"
       style="fill:none;stroke:#ffffff;stroke-width:1px;stroke-linecap:square;stroke-linejoin:miter;stroke-opacity:1" />
    <path
       style="fill:none;stroke:#ffffff;stroke-width:1px;stroke-linecap:square;stroke-linejoin:miter;stroke-opacity:1"
       d="m 73.5,1029.8622 c -2,0.5 -5,2 -5,6"
       id="path3007"
       inkscape:connector-curvature="0"
       sodipodi:nodetypes="cc" />
    <path
       inkscape:connector-curvature="0"
       id="path3009"
       d="m 67.5,1023.8622 0,12"
       style="fill:none;stroke:#ffffff;stroke-width:1px;stroke-linecap:square;stroke-linejoin:miter;stroke-opacity:1" />
    <path
       inkscape:export-ydpi="90"
       inkscape:export-xdpi="90"
       sodipodi:nodetypes="csasasasasasasasasasasasasasasasc"
       inkscape:connector-curvature="0"
       id="path3793"
       d="m 76.441751,1029.863 c 0.06311,-0.1933 0.134101,-1.9568 0.212985,-2.1894 0.07889,-0.2325 0.164474,0.5447 0.260316,0.8124 0.09378,0.262 0.197222,1.0327 0.307655,0.776 0.110434,-0.2567 0.218047,-1.5352 0.354966,-2.2981 0.133762,-0.7453 0.28398,-2.0172 0.455552,-2.2256 0.171571,-0.2083 0.368684,0.6573 0.538379,0.9936 0.194786,0.386 0.38261,1.2623 0.550231,1.1747 0.167621,-0.088 0.244899,-1.119 0.349041,-1.6821 0.08661,-0.4683 0.110436,-1.4978 0.229255,-1.4102 0.118818,0.088 0.27822,1.279 0.421533,1.9176 0.157156,0.7003 0.316496,1.8904 0.480677,2.0987 0.164183,0.2084 0.318289,-0.5779 0.477757,-0.8667 0.14623,-0.2648 0.297785,-1.0509 0.439282,-0.7941 0.141497,0.2566 0.276936,1.5425 0.400826,2.3162 0.121459,0.7585 0.23762,2.0474 0.335735,2.2799 0.09811,0.2325 0.164115,-0.6016 0.244059,-0.9029 0.07643,-0.2881 0.143447,-1.1069 0.225253,-0.8654 0.08181,0.2415 0.170899,1.5325 0.266077,2.2976 0.09625,0.7737 0.198377,2.0631 0.308396,2.3185 0.11002,0.2554 0.226939,-0.5387 0.352222,-0.8026 0.141494,-0.2981 0.280975,-1.0843 0.450794,-0.8813 0.169819,0.203 0.345514,1.3911 0.533121,2.0827 0.17289,0.6374 0.379388,1.8203 0.545936,1.9045 0.166548,0.084 0.256506,-0.9383 0.347325,-1.4156 0.105777,-0.5559 0.110437,-1.5945 0.229256,-1.6821 0.118818,-0.088 0.260446,0.7912 0.421533,1.1748 0.142444,0.3392 0.316543,1.2019 0.480714,0.9935 0.16417,-0.2084 0.326861,-1.482 0.47772,-2.2256 0.155061,-0.7643 0.297785,-2.0414 0.439281,-2.2981 0.141498,-0.2567 0.2783,0.512 0.400827,0.7761 0.123293,0.2658 0.237653,1.0448 0.335761,0.8123 0.0981,-0.2325 0.180926,-1.9961 0.244033,-2.1893"
       style="fill:none;stroke:#ffffff;stroke-width:0.88350213px;stroke-linecap:square;stroke-linejoin:round;stroke-opacity:1;display:inline" />
    <path
       sodipodi:nodetypes="cccc"
       inkscape:connector-curvature="0"
       id="path3796"
       d="m 91.5,1029.8622 c 1,-2.5 2,-6 2,-6 5,0 7,9.5 8,12 1,-2.5 2,-6 2,-6"
       style="fill:none;stroke:#ffffff;stroke-width:1;stroke-linecap:square;stroke-linejoin:miter;stroke-miterlimit:3;stroke-opacity:1;stroke-dasharray:none" />
    <path
       inkscape:connector-curvature="0"
       id="path3065"
       d="m 3.5,1040.8622 8,8"
       style="fill:none;stroke:#ffffff;stroke-width:3;stroke-linecap:butt;stroke-linejoin:miter;stroke-miterlimit:4;stroke-opacity:1;stroke-dasharray:none" />
    <path
       style="fill:none;stroke:#ffffff;stroke-width:3;stroke-linecap:butt;stroke-linejoin:miter;stroke-miterlimit:4;stroke-opacity:1;stroke-dasharray:none"
       d="m 11.5,1040.8622 -8,8"
       id="path3835"
       inkscape:connector-curvature="0" />
    <rect
       y="1044.3622"
       x="18"
       height="5.9999485"
       width="9"
       id="rect3837"
       style="fill:#ffffff;stroke:none" />
    <path
       sodipodi:open="true"
       sodipodi:end="3.1369421"
       sodipodi:start="0"
       transform="matrix(1,0,0,-1,0,1061.3622)"
       d="m 25,18 a 2.5,2.5 0 0 1 -4.999973,0.01163"
       sodipodi:ry="2.5"
       sodipodi:rx="2.5"
       sodipodi:cy="18"
       sodipodi:cx="22.5"
       id="path3843"
       style="fill:none;stroke:#ffffff;stroke-width:2;stroke-linecap:round;stroke-linejoin:round;stroke-miterlimit:4;stroke-dasharray:none"
       sodipodi:type="arc" />
    <rect
       style="fill:#ffffff;stroke:none"
       id="rect3845"
       width="9"
       height="4.9999657"
       x="33"
       y="1045.3622" />
    <path
       sodipodi:nodetypes="cc"
       inkscape:connector-curvature="0"
       id="path3865"
       d="m 25,1046.3622 0,-3"
       style="fill:none;stroke:#ffffff;stroke-width:2;stroke-linecap:butt;stroke-linejoin:miter;stroke-miterlimit:4;stroke-opacity:1;stroke-dasharray:none" />
    <path
       style="fill:none;stroke:#ffffff;stroke-width:2;stroke-linecap:butt;stroke-linejoin:miter;stroke-miterlimit:4;stroke-opacity:1;stroke-dasharray:none"
       d="m 20,1046.3622 0,-3"
       id="path3867"
       inkscape:connector-curvature="0"
       sodipodi:nodetypes="cc" />
    <path
       sodipodi:type="arc"
       style="fill:none;stroke:#ffffff;stroke-width:2;stroke-linecap:round;stroke-linejoin:round;stroke-miterlimit:4;stroke-dasharray:none"
       id="path3869"
       sodipodi:cx="22.5"
       sodipodi:cy="18"
       sodipodi:rx="2.5"
       sodipodi:ry="2.5"
       d="m 25,18 a 2.5,2.5 0 0 1 -4.999973,0.01163"
       transform="matrix(1,0,0,-1,15,1059.8622)"
       sodipodi:start="0"
       sodipodi:end="3.1369421"
       sodipodi:open="true" />
    <path
       style="fill:none;stroke:#ffffff;stroke-width:2;stroke-linecap:round;stroke-linejoin:miter;stroke-miterlimit:4;stroke-opacity:1;stroke-dasharray:none"
       d="m 40,1045.3622 0,-3.5"
       id="path3871"
       inkscape:connector-curvature="0"
       sodipodi:nodetypes="cc" />
    <path
       sodipodi:nodetypes="cc"
       inkscape:connector-curvature="0"
       id="path3873"
       d="m 35,1043.3622 0,-1.5"
       style="fill:none;stroke:#ffffff;stroke-width:2;stroke-linecap:butt;stroke-linejoin:miter;stroke-miterlimit:4;stroke-opacity:1;stroke-dasharray:none" />
    <path
       sodipodi:open="true"
       sodipodi:end="10.339508"
       sodipodi:start="5.4872602"
       transform="translate(0,1022.3622)"
       d="M 55.648308,19.2847 A 4.5,4.5 0 1 1 49.75498,18.934209"
       sodipodi:ry="4.5"
       sodipodi:rx="4.5"
       sodipodi:cy="22.5"
       sodipodi:cx="52.5"
       id="path3875"
       style="fill:none;stroke:#ffffff;stroke-width:2;stroke-linecap:butt;stroke-linejoin:round;stroke-miterlimit:4;stroke-dasharray:none;marker-start:url(#TriangleInSP);marker-end:none"
       sodipodi:type="arc" />
    <path
       style="fill:none;stroke:#000000;stroke-width:2.5;stroke-linecap:butt;stroke-linejoin:miter;stroke-miterlimit:4;stroke-opacity:1;stroke-dasharray:none"
       d="M 78.5,21.5 82,25 86,18"
       id="path5823"
       inkscape:connector-curvature="0"
       sodipodi:nodetypes="ccc"
       transform="translate(0,1022.3622)" />
  </g>
</svg>
